<?xml version="1.0" encoding="UTF-8" standalone="no"?>
<svg
   shape-rendering="geometricPrecision"
   text-rendering="geometricPrecision"
   image-rendering="optimizeQuality"
   fill-rule="evenodd"
   clip-rule="evenodd"
   viewBox="0 0 47.999999 48"
   version="1.1"
   id="svg24"
   sodipodi:docname="star-gold.svg"
   width="48"
   height="48"
   inkscape:version="1.4.2 (f4327f4, 2025-05-13)"
   xmlns:inkscape="http://www.inkscape.org/namespaces/inkscape"
   xmlns:sodipodi="http://sodipodi.sourceforge.net/DTD/sodipodi-0.dtd"
   xmlns="http://www.w3.org/2000/svg"
   xmlns:svg="http://www.w3.org/2000/svg">
  <sodipodi:namedview
     id="namedview24"
     pagecolor="#ffffff"
     bordercolor="#000000"
     borderopacity="0.25"
     inkscape:showpageshadow="2"
     inkscape:pageopacity="0.0"
     inkscape:pagecheckerboard="0"
     inkscape:deskcolor="#d1d1d1"
     inkscape:zoom="10.6875"
     inkscape:cx="23.906433"
     inkscape:cy="24.654971"
     inkscape:window-width="1366"
     inkscape:window-height="715"
     inkscape:window-x="-8"
     inkscape:window-y="-8"
     inkscape:window-maximized="1"
     inkscape:current-layer="svg24" />
  <defs
     id="defs15">
    <linearGradient
       id="prefix__a"
       gradientUnits="userSpaceOnUse"
       x1="45.819"
       y1="3.513"
       x2="45.82"
       y2="64.846001">
      <stop
         offset="0"
         stop-color="#FFD433"
         id="stop1" />
      <stop
         offset=".471"
         stop-color="#FABE2B"
         id="stop2" />
      <stop
         offset="1"
         stop-color="#F4A722"
         id="stop3" />
    </linearGradient>
    <linearGradient
       id="prefix__b"
       gradientUnits="userSpaceOnUse"
       x1="151.799"
       y1="3.513"
       x2="151.80099"
       y2="64.846001">
      <stop
         offset="0"
         stop-color="#FFD433"
         id="stop4" />
      <stop
         offset=".471"
         stop-color="#FABE2B"
         id="stop5" />
      <stop
         offset="1"
         stop-color="#F4A722"
         id="stop6" />
    </linearGradient>
    <linearGradient
       id="prefix__c"
       gradientUnits="userSpaceOnUse"
       x1="257.77899"
       y1="3.513"
       x2="257.78101"
       y2="64.846001">
      <stop
         offset="0"
         stop-color="#FFD433"
         id="stop7" />
      <stop
         offset=".471"
         stop-color="#FABE2B"
         id="stop8" />
      <stop
         offset="1"
         stop-color="#F4A722"
         id="stop9" />
    </linearGradient>
    <linearGradient
       id="prefix__d"
       gradientUnits="userSpaceOnUse"
       x1="469.73901"
       y1="3.513"
       x2="469.742"
       y2="80.584">
      <stop
         offset="0"
         stop-color="#CCC"
         id="stop10" />
      <stop
         offset=".471"
         stop-color="#B3B3B3"
         id="stop11" />
      <stop
         offset="1"
         stop-color="#999"
         id="stop12" />
    </linearGradient>
    <linearGradient
       id="prefix__e"
       gradientUnits="userSpaceOnUse"
       x1="363.76001"
       y1="3.513"
       x2="363.76199"
       y2="79.761002">
      <stop
         offset="0"
         stop-color="#CCC"
         id="stop13" />
      <stop
         offset=".471"
         stop-color="#B3B3B3"
         id="stop14" />
      <stop
         offset="1"
         stop-color="#999"
         id="stop15" />
    </linearGradient>
  </defs>
  <g
     id="g24"
     transform="matrix(0.51770857,0,0,0.51553118,0.49874439,1.5000327)">
    <path
       fill="#f0b100"
       fill-rule="nonzero"
       d="m 69.83,55.773 4.91,28.788 a 2.37,2.37 0 0 1 -0.247,1.491 2.334,2.334 0 0 1 -3.157,0.96 L 45.518,73.203 19.802,86.957 A 2.337,2.337 0 0 1 16.295,84.579 L 21.039,55.784 0.741,35.09 A 2.339,2.339 0 0 1 2.009,31.069 L 30.361,27.01 43.426,1.296 a 2.336,2.336 0 0 1 4.178,-0.011 l 12.95,25.727 28.227,4.057 c 0.473,0.07 0.93,0.282 1.299,0.641 0.925,0.899 0.945,2.378 0.045,3.303 z"
       id="path15" />
    <path
       fill="url(#prefix__a)"
       d="M 72.434,84.954 67.324,54.995 88.451,33.384 59.016,29.153 45.518,2.337 31.893,29.153 2.338,33.384 23.537,54.995 18.601,84.954 45.518,70.557 Z"
       id="path16"
       style="fill:url(#prefix__a)" />
  </g>
</svg>
