<?xml version="1.0" encoding="UTF-8" standalone="no"?>
<svg
   version="1.1"
   id="Layer_1"
   x="0px"
   y="0px"
   viewBox="0 0 48.000001 47.999998"
   xml:space="preserve"
   sodipodi:docname="thumbs-up-gray-icon.svg"
   width="48"
   height="48"
   inkscape:version="1.4.2 (f4327f4, 2025-05-13)"
   xmlns:inkscape="http://www.inkscape.org/namespaces/inkscape"
   xmlns:sodipodi="http://sodipodi.sourceforge.net/DTD/sodipodi-0.dtd"
   xmlns="http://www.w3.org/2000/svg"
   xmlns:svg="http://www.w3.org/2000/svg"><defs
     id="defs1" /><sodipodi:namedview
     id="namedview1"
     pagecolor="#ffffff"
     bordercolor="#000000"
     borderopacity="0.25"
     inkscape:showpageshadow="2"
     inkscape:pageopacity="0.0"
     inkscape:pagecheckerboard="0"
     inkscape:deskcolor="#d1d1d1"
     inkscape:zoom="10.6875"
     inkscape:cx="24"
     inkscape:cy="24"
     inkscape:window-width="1366"
     inkscape:window-height="715"
     inkscape:window-x="-8"
     inkscape:window-y="-8"
     inkscape:window-maximized="1"
     inkscape:current-layer="g1" /><style
     type="text/css"
     id="style1">.st0{fill-rule:evenodd;clip-rule:evenodd;}</style><g
     id="g1"
     style="fill:#3771c8"><path
       class="st0"
       d="M 2.0576092,20.93672 H 12.522332 c 0.845286,0 1.53758,0.698937 1.53758,1.556197 v 20.66305 c 0,0.853398 -0.692294,1.556197 -1.53758,1.556197 H 2.0576092 c -0.8452864,0 -1.53757991,-0.698938 -1.53757991,-1.556197 v -20.66305 c 0,-0.85726 0.69229351,-1.556197 1.53757991,-1.556197 z M 24.63938,5.4365373 c 0.810863,-4.1511453 7.542556,-0.3282301 7.986236,6.3638017 0.133869,2.046611 -0.0765,4.429176 -0.573724,7.08977 h 9.619437 c 4.000768,0.158323 7.492833,3.050609 5.025821,7.800291 0.562249,2.069781 0.646395,4.498683 -0.87971,5.456343 0.191241,3.266854 -0.703768,5.290297 -2.379042,6.88897 -0.11092,1.633427 -0.455154,3.085363 -1.235419,4.201346 -1.292791,1.841949 -2.340793,1.401735 -4.3756,1.401735 H 21.583345 c -2.574108,0 -3.97782,-0.714383 -5.660743,-2.845948 V 23.527807 c 4.842229,-1.320643 7.416337,-8.008814 8.716778,-12.399374 z"
       id="path1"
       style="fill:#b3b3b3;stroke-width:0.384314" /></g></svg>
