<?xml version="1.0" encoding="UTF-8" standalone="no"?>
<!-- Generator: Adobe Illustrator 26.0.3, SVG Export Plug-In . SVG Version: 6.00 Build 0)  -->

<svg
   version="1.0"
   id="Layer_1"
   x="0px"
   y="0px"
   viewBox="0 0 48 47.999999"
   xml:space="preserve"
   sodipodi:docname="University of Cape Town UCT.svg"
   width="48"
   height="48"
   inkscape:version="1.4.2 (f4327f4, 2025-05-13)"
   xmlns:inkscape="http://www.inkscape.org/namespaces/inkscape"
   xmlns:sodipodi="http://sodipodi.sourceforge.net/DTD/sodipodi-0.dtd"
   xmlns="http://www.w3.org/2000/svg"
   xmlns:svg="http://www.w3.org/2000/svg"><defs
   id="defs155" /><sodipodi:namedview
   id="namedview155"
   pagecolor="#ffffff"
   bordercolor="#000000"
   borderopacity="0.25"
   inkscape:showpageshadow="2"
   inkscape:pageopacity="0.0"
   inkscape:pagecheckerboard="0"
   inkscape:deskcolor="#d1d1d1"
   inkscape:zoom="10.6875"
   inkscape:cx="24"
   inkscape:cy="24"
   inkscape:window-width="1366"
   inkscape:window-height="715"
   inkscape:window-x="-8"
   inkscape:window-y="-8"
   inkscape:window-maximized="1"
   inkscape:current-layer="Layer_1" />
<style
   type="text/css"
   id="style1">
	.st0{fill:#2B8CBE;}
	.st1{fill:#FFFFFF;}
</style>
<g
   id="g155"
   transform="matrix(0.2598119,0,0,0.2598119,-14.971785,-4.1759855)">
	<g
   id="g154">
		<path
   class="st0"
   d="m 80.7,59.3 c 2,1.6 4.1,2 5.8,0 1.7,-2 0.8,-4.1 -1.2,-5.7 l -4.8,-3.9 -1.2,1.5 4.5,3.7 c 1,0.8 2.3,2 1.3,3.3 -1,1.3 -2.5,0.2 -3.5,-0.6 L 77.1,54 75.9,55.5 Z"
   id="path1" />
		<path
   class="st0"
   d="m 86.5,48.6 -1.3,1.3 4.9,4.7 1.3,-1.3 -2.5,-2.3 c -0.6,-0.6 -1.5,-1.5 -0.7,-2.2 0.8,-0.8 1.4,0 2,0.6 l 2.6,2.5 1.3,-1.3 -3,-2.9 C 90,46.6 88.7,46.1 87.5,47.3 87,47.8 86.8,48.4 86.9,49.1 v 0 z"
   id="path2" />
		<path
   class="st0"
   d="m 92.6,42.8 -1.4,1.2 4.5,5 1.4,-1.2 z m -3.3,-2.4 c -0.4,0.4 -0.4,1.1 0,1.6 0.4,0.5 1.1,0.6 1.5,0.2 0.4,-0.4 0.6,-1.1 0.2,-1.5 0,0 -0.1,-0.1 -0.1,-0.1 -0.4,-0.5 -1.1,-0.5 -1.6,-0.2"
   id="path3" />
		<polygon
   class="st0"
   points="94.1,41.5 100.6,45.3 101.4,44.7 99.6,37.4 98,38.6 99.2,42.5 95.7,40.3 "
   id="polygon3" />
		<path
   class="st0"
   d="m 108,36.5 -0.1,-0.2 c -1.1,-1.7 -2.8,-2.6 -4.5,-1.5 -1.8,1.1 -1.8,3 -0.7,4.8 1.1,1.8 2.9,2.4 4.6,1.3 1.1,-0.7 1.7,-2 1.4,-3.3 l -1.6,0.7 c 0.1,0.5 -0.1,1.1 -0.6,1.4 -0.8,0.5 -1.6,-0.1 -2,-0.9 z m -4.2,1.2 c -0.4,-0.6 -0.2,-1.4 0.3,-1.8 0.6,-0.3 1.4,-0.1 1.8,0.5 z"
   id="path4" />
		<path
   class="st0"
   d="m 109.9,31.3 -1.7,0.8 3,6.1 1.7,-0.8 -1.3,-2.7 c -0.5,-1 -0.9,-2.1 0.3,-2.6 0.2,-0.1 0.5,-0.2 0.8,-0.1 l -0.6,-1.7 c -0.3,0 -0.5,0.1 -0.8,0.2 -0.6,0.3 -1,0.9 -1,1.5 v 0 z"
   id="path5" />
		<path
   class="st0"
   d="m 117.7,28.4 c -0.7,-0.2 -1.5,-0.2 -2.2,0.1 -1,0.4 -1.6,1.5 -1.2,2.6 0,0.1 0.1,0.2 0.1,0.2 0.3,0.8 1,1.2 1.8,1.2 0.7,0 1.3,-0.1 1.6,0.5 0.2,0.4 0,0.8 -0.3,0.9 0,0 0,0 -0.1,0 -0.5,0.2 -1.1,0.1 -1.6,-0.2 l -0.3,1.4 c 0.8,0.4 1.7,0.5 2.5,0.2 1.2,-0.4 1.9,-1.8 1.5,-3 0,-0.1 0,-0.1 -0.1,-0.2 -0.3,-0.8 -1.1,-1.4 -2,-1.3 -0.7,0 -1.4,0.1 -1.6,-0.4 -0.1,-0.3 0.1,-0.6 0.3,-0.8 0.4,-0.1 0.7,-0.1 1.1,0.1 z"
   id="path6" />
		<path
   class="st0"
   d="m 121.6,26.5 -1.7,0.6 2.2,6.4 1.7,-0.6 z M 119.4,23 c -0.6,0.2 -1,0.8 -0.8,1.4 0.2,0.6 0.8,1 1.4,0.8 0.6,-0.2 1,-0.8 0.8,-1.4 0,0 0,0 0,0 -0.1,-0.7 -0.8,-1 -1.4,-0.8 0,0 0,0 0,0"
   id="path7" />
		<polygon
   class="st0"
   points="123.9,27.4 124.6,27.2 126.1,32.1 127.8,31.6 126.3,26.7 127.4,26.4 126.9,24.8 125.8,25.1 125.2,22.9 123.4,23.5 124.1,25.7 123.5,25.8 "
   id="polygon7" />
		<polygon
   class="st0"
   points="131.7,29.6 130.6,34.6 132.6,34.2 135,23 133,23.5 132.2,27.6 129.9,24.1 127.9,24.6 "
   id="polygon8" />
		<path
   class="st0"
   d="m 145,21.9 c -1.8,0 -3.3,1.6 -3.3,3.4 0,0.1 0,0.2 0,0.3 0,1.9 1.5,3.4 3.4,3.4 1.9,0 3.4,-1.5 3.4,-3.4 0,-0.1 0,-0.2 0,-0.3 0.1,-1.8 -1.4,-3.4 -3.2,-3.5 -0.1,0.1 -0.2,0.1 -0.3,0.1 m 0.1,1.7 c 0.9,0 1.6,0.9 1.6,1.8 0.1,0.9 -0.5,1.8 -1.4,1.9 -0.9,0 -1.6,-0.9 -1.6,-1.8 -0.2,-0.9 0.4,-1.8 1.4,-1.9 0,0 0,0 0,0"
   id="path8" />
		<path
   class="st0"
   d="m 152.4,23.7 h 1.5 l 0.1,-1.6 -1.5,-0.1 0.1,-1.7 c 0,-0.6 0,-1.7 0.8,-1.6 0.3,0 0.5,0.1 0.7,0.3 l 0.1,-1.7 c -0.3,-0.2 -0.6,-0.2 -0.9,-0.2 -1.8,-0.1 -2.5,1.4 -2.5,3 l -0.1,2 H 150 l -0.1,1.6 h 0.6 l -0.2,5.2 1.8,0.1 z"
   id="path9" />
		<path
   class="st0"
   d="m 167.5,20.5 c -0.6,-0.5 -1.3,-0.8 -2.1,-0.9 -2.9,-0.4 -5.2,1.8 -5.7,4.7 -0.4,2.9 1.2,5.6 3.9,6.1 0.8,0.1 1.6,0 2.3,-0.3 l 0.4,-2.4 c -0.6,0.6 -1.5,0.8 -2.3,0.8 -1.8,-0.3 -2.6,-2.2 -2.3,-3.9 0.3,-1.7 1.6,-3.4 3.4,-3.1 0.9,0.1 1.6,0.7 2,1.4 z"
   id="path10" />
		<path
   class="st0"
   d="m 176,26.2 -1.7,-0.5 -0.2,0.6 c -0.3,-0.6 -0.8,-1.1 -1.5,-1.3 -1.8,-0.5 -3.3,0.8 -3.8,2.6 -0.5,1.7 0,3.8 1.8,4.3 0.6,0.2 1.4,0.1 1.9,-0.3 v 0 l -0.2,0.6 1.7,0.5 z m -4.6,4.2 c -0.9,-0.4 -1.3,-1.4 -0.9,-2.3 0.1,-0.9 0.8,-1.5 1.7,-1.4 0.9,0.1 1.5,0.8 1.4,1.7 0,0.2 -0.1,0.4 -0.2,0.6 -0.2,0.9 -1,1.5 -2,1.4"
   id="path11" />
		<path
   class="st0"
   d="m 180.3,27.8 -1.7,-0.7 -3.8,9.6 1.7,0.7 1.5,-4 v 0 c 0.2,0.7 0.6,1.2 1.3,1.4 1.8,0.7 3.4,-0.6 4.1,-2.3 0.7,-1.7 0.3,-3.7 -1.4,-4.4 -0.7,-0.3 -1.4,-0.2 -2,0.1 z m -0.7,5.4 c -0.8,-0.5 -1.1,-1.5 -0.7,-2.3 0.5,-0.7 1.5,-0.9 2.2,-0.4 0.7,0.5 0.9,1.5 0.4,2.2 -0.4,0.5 -1.2,0.8 -1.9,0.5"
   id="path12" />
		<path
   class="st0"
   d="m 190.3,36.5 0.1,-0.2 c 1,-1.8 0.9,-3.7 -1,-4.7 -1.9,-1 -3.5,0 -4.5,1.8 -1,1.8 -0.6,3.7 1.2,4.6 1.2,0.6 2.6,0.4 3.6,-0.5 l -1.4,-1 c -0.4,0.4 -1,0.5 -1.5,0.2 -0.8,-0.5 -0.7,-1.5 -0.3,-2.2 z m -3.2,-3 c 0.3,-0.6 1.1,-0.9 1.7,-0.6 0.6,0.4 0.8,1.2 0.4,1.8 z"
   id="path13" />
		<polygon
   class="st0"
   points="201.8,37.4 203.4,38.6 204.4,37.1 199.6,33.7 198.6,35.1 200.2,36.3 195.2,43.3 196.7,44.4 "
   id="polygon13" />
		<path
   class="st0"
   d="m 205.6,42.5 c -1.4,-1.2 -3.5,-1 -4.7,0.4 -0.1,0.1 -0.1,0.2 -0.2,0.2 -1.1,1.5 -0.8,3.6 0.7,4.7 1.5,1.1 3.6,0.8 4.7,-0.7 1.1,-1.5 0.8,-3.5 -0.5,-4.6 m -1.1,1.3 c 0.6,0.9 0.5,2.1 -0.4,2.7 -0.6,0.5 -1.4,0.5 -2.1,0.2 -0.6,-0.9 -0.5,-2.1 0.4,-2.7 0.6,-0.5 1.4,-0.6 2.1,-0.2"
   id="path14" />
		<polygon
   class="st0"
   points="215.3,52.4 211.5,54.1 213.5,50.1 212.9,49.5 208.8,51.1 210.7,47.5 209.4,46 206.3,52.9 207,53.6 211,51.9 208.9,55.7 209.6,56.4 216.7,53.8 "
   id="polygon14" />
		<path
   class="st0"
   d="m 219,57.2 -1.1,-1.5 -5.5,4 1.1,1.5 2.7,-2 c 0.6,-0.5 1.7,-1.2 2.3,-0.3 0.6,0.9 -0.3,1.4 -0.9,1.9 l -2.9,2.1 1.1,1.5 3.3,-2.4 c 1.3,-0.9 2,-2.1 1,-3.5 -0.4,-0.6 -1,-0.9 -1.7,-0.9 v 0 z"
   id="path15" />
		<path
   class="st0"
   d="m 220.7,69.2 c 0.4,0.8 1.4,1.2 2.2,0.8 0.8,-0.4 1.2,-1.4 0.8,-2.2 -0.4,-0.8 -1.4,-1.2 -2.2,-0.8 0,0 -0.1,0 -0.1,0 -0.8,0.4 -1.1,1.4 -0.7,2.2"
   id="path16" />
		<path
   class="st0"
   d="m 229.7,76.2 -0.7,-1.7 -6.3,2.5 0.7,1.7 z m 3.3,-2.4 c -0.2,-0.6 -0.9,-0.9 -1.5,-0.7 -0.6,0.2 -0.9,0.9 -0.7,1.5 0.2,0.6 0.9,0.9 1.5,0.7 0,0 0,0 0.1,0 0.6,-0.2 0.9,-0.9 0.6,-1.5 0,0 0,0 0,0"
   id="path17" />
		<polygon
   class="st0"
   points="234,77 229.6,81.6 225.1,83.1 225.7,84.9 230.2,83.4 236.5,84.7 235.8,82.5 231.8,81.9 234.7,79.1 "
   id="polygon17" />
		<path
   class="st0"
   d="m 233.5,87.3 -3.9,0.8 c -1.9,0.4 -2.7,1.6 -2.3,3.4 0.4,1.8 1.6,2.6 3.5,2.2 l 3.9,-0.8 -0.4,-1.8 -3.6,0.8 c -0.8,0.2 -1.7,0.2 -1.9,-0.7 -0.2,-0.9 0.7,-1.2 1.4,-1.4 l 3.6,-0.8 z"
   id="path18" />
		<path
   class="st0"
   d="m 235.4,97.7 -0.2,-1.8 -6.7,0.8 0.2,1.8 3.3,-0.4 c 0.8,-0.1 2.1,-0.2 2.2,0.8 0.1,1 -0.9,1.1 -1.7,1.2 l -3.6,0.4 0.2,1.8 4.1,-0.5 c 1.6,-0.2 2.8,-0.8 2.6,-2.6 0,-0.7 -0.4,-1.3 -1,-1.6 v 0 z"
   id="path19" />
		<path
   class="st0"
   d="m 236.1,106.6 -0.1,-1.8 -6.8,0.2 0.1,1.8 z m 3.9,-1.1 c 0,-0.6 -0.5,-1.1 -1.1,-1.1 -0.6,0 -1.1,0.5 -1.1,1.1 0,0.6 0.5,1.1 1.1,1.1 0,0 0,0 0,0 0.7,0 1.1,-0.5 1.1,-1.1"
   id="path20" />
		<polygon
   class="st0"
   points="236.2,108.7 229.2,111.3 229.2,112.3 236,115.5 236.1,113.5 232.3,112 236.1,110.7 "
   id="polygon20" />
		<path
   class="st0"
   d="m 231.3,123 h 0.2 c 2,0.3 3.8,-0.4 4.1,-2.5 0.3,-2.1 -1.2,-3.3 -3.2,-3.6 -2,-0.3 -3.7,0.7 -3.9,2.7 -0.2,1.3 0.5,2.6 1.7,3.2 l 0.5,-1.6 c -0.5,-0.2 -0.8,-0.8 -0.7,-1.3 0.1,-0.9 1.1,-1.1 2,-1 z m 1.8,-4 c 0.7,0.2 1.3,0.7 1.2,1.4 -0.2,0.7 -0.8,1.1 -1.5,1 z"
   id="path21" />
		<path
   class="st0"
   d="m 233.2,129.8 c 0.6,-0.5 1,-1.1 1.1,-1.9 0.3,-1.1 -0.4,-2.2 -1.5,-2.4 -0.1,0 -0.2,0 -0.2,0 -0.8,-0.2 -1.6,0.2 -2,0.9 -0.4,0.6 -0.7,1.2 -1.3,1 -0.4,-0.1 -0.6,-0.4 -0.6,-0.8 0,0 0,0 0,0 0.2,-0.5 0.5,-0.9 1.1,-1.2 l -0.9,-1 c -0.8,0.4 -1.4,1.1 -1.6,2 -0.3,1.3 0.4,2.6 1.7,2.9 0.1,0 0.1,0 0.2,0 0.8,0.2 1.7,-0.2 2.2,-0.9 0.4,-0.6 0.7,-1.2 1.2,-1.1 0.3,0.1 0.5,0.4 0.4,0.7 -0.1,0.4 -0.3,0.7 -0.7,0.8 z"
   id="path22" />
		<path
   class="st0"
   d="m 232.4,134.3 0.5,-1.8 -6.5,-2 -0.5,1.8 z m 4.1,0.3 c 0.2,-0.6 -0.2,-1.2 -0.8,-1.4 -0.6,-0.2 -1.2,0.1 -1.4,0.6 -0.2,0.6 0.1,1.2 0.6,1.4 0.1,0 0.1,0 0.2,0 0.5,0.3 1.2,0 1.4,-0.6"
   id="path23" />
		<polygon
   class="st0"
   points="230.2,135.9 230,136.5 225.1,134.9 224.6,136.6 229.4,138.2 229.1,139.3 230.6,139.8 230.9,138.8 233.1,139.5 233.7,137.8 231.5,137 231.8,136.4 "
   id="polygon23" />
		<path
   class="st0"
   d="m 234.3,143.8 -10.7,-4.7 -0.7,1.7 3.1,1.4 c 0.8,0.3 1.9,0.9 1.5,1.9 -0.4,1 -1.4,0.5 -2.1,0.2 l -3.2,-1.5 -0.7,1.7 3.8,1.7 c 1.4,0.6 2.8,0.7 3.5,-0.9 0.3,-0.6 0.3,-1.3 0,-1.9 v 0 l 5,2.2 z"
   id="path24" />
		<path
   class="st0"
   d="m 225.1,151.5 0.9,-1.6 -6,-3.3 -0.9,1.6 z m 3.9,1.1 c 0.3,-0.5 0.2,-1.2 -0.4,-1.6 -0.5,-0.3 -1.2,-0.2 -1.6,0.4 -0.3,0.5 -0.2,1.2 0.4,1.6 0,0 0,0 0,0 0.7,0.3 1.3,0.1 1.6,-0.4"
   id="path25" />
		<polygon
   class="st0"
   points="215.4,156.1 212.9,151.7 211.7,153.3 217.4,163.1 218.6,161.5 216.4,157.9 220.5,158.9 221.7,157.2 "
   id="polygon25" />
		<path
   class="st0"
   d="m 211.7,169.5 1.2,-1.3 -0.5,-0.4 c 0.7,0 1.4,-0.2 1.8,-0.7 1.2,-1.4 0.7,-3.4 -0.7,-4.6 -1.4,-1.2 -3.4,-1.7 -4.7,-0.3 -0.5,0.5 -0.7,1.2 -0.6,1.9 v 0 l -0.5,-0.4 -1.2,1.3 z m -1.7,-5.9 c 0.5,-0.9 1.7,-1.2 2.7,-0.7 0.9,0.5 1.2,1.7 0.7,2.7 -0.5,1 -1.7,1.2 -2.7,0.7 -0.1,-0.1 -0.2,-0.2 -0.3,-0.2 -0.8,-0.7 -1,-1.7 -0.4,-2.5"
   id="path26" />
		<path
   class="st0"
   d="m 206.2,174.1 c 0.7,-0.1 1.5,-0.4 2,-0.9 0.8,-0.7 0.9,-2 0.2,-2.8 -0.1,-0.1 -0.1,-0.1 -0.2,-0.2 -0.5,-0.6 -1.4,-0.8 -2.1,-0.4 -0.7,0.2 -1.2,0.6 -1.6,0.1 -0.3,-0.3 -0.2,-0.7 0.1,-1 0.4,-0.3 1,-0.4 1.5,-0.3 l -0.2,-1.4 c -0.9,-0.1 -1.8,0.1 -2.4,0.7 -1,0.8 -1.2,2.3 -0.3,3.3 0,0 0.1,0.1 0.1,0.1 0.6,0.7 1.5,0.9 2.3,0.5 0.7,-0.2 1.3,-0.6 1.6,-0.2 0.2,0.2 0.2,0.6 -0.1,0.8 -0.3,0.2 -0.6,0.3 -1,0.3 z"
   id="path27" />
		<path
   class="st0"
   d="m 197.5,176.9 0.1,0.2 c 1.2,1.6 3,2.3 4.6,1 1.6,-1.3 1.5,-3.2 0.2,-4.8 -1.3,-1.6 -3.1,-2.1 -4.7,-0.9 -1.1,0.8 -1.5,2.2 -1,3.4 l 1.5,-0.8 c -0.2,-0.5 0,-1.1 0.4,-1.5 0.8,-0.6 1.6,0 2.1,0.7 z m 4,-1.6 c 0.4,0.6 0.4,1.4 -0.1,1.8 -0.6,0.4 -1.4,0.2 -1.8,-0.3 z"
   id="path28" />
		<polygon
   class="st0"
   points="189.4,178.5 187.3,179.8 193.6,182.5 192.9,188.5 195,187.3 195.3,182 195.3,181.9 197.6,185.7 199.2,184.7 193.8,175.8 192.2,176.8 194.6,180.8 "
   id="polygon28" />
		<path
   class="st0"
   d="m 183.2,189.2 1.6,-0.8 -0.3,-0.6 c 0.6,0.3 1.4,0.3 2,0 1.7,-0.8 1.9,-2.9 1.1,-4.5 -0.8,-1.6 -2.5,-2.8 -4.2,-2 -0.6,0.3 -1.1,0.8 -1.2,1.5 v 0 l -0.3,-0.6 -1.6,0.8 z m 0.6,-6.1 c 0.9,-0.3 1.9,0.2 2.2,1.1 0.5,0.7 0.4,1.7 -0.3,2.2 -0.7,0.5 -1.7,0.4 -2.2,-0.3 -0.1,-0.2 -0.2,-0.4 -0.3,-0.6 -0.4,-0.9 -0.2,-1.9 0.6,-2.4"
   id="path29" />
		<path
   class="st0"
   d="m 178.3,191 1.7,-0.6 -3.3,-9.8 -1.7,0.6 1.4,4 v 0 c -0.5,-0.4 -1.3,-0.5 -1.9,-0.3 -1.8,0.6 -2.2,2.6 -1.7,4.4 0.5,1.8 2.2,3 3.9,2.5 0.7,-0.2 1.2,-0.7 1.4,-1.4 z m -2.9,-4.5 c 0.9,-0.6 2.1,-0.3 2.7,0.7 0.6,0.9 0.3,2.1 -0.7,2.7 -0.9,0.6 -2.1,0.3 -2.7,-0.7 -0.1,-0.1 -0.1,-0.3 -0.2,-0.4 -0.3,-0.9 0,-1.9 0.9,-2.3"
   id="path30" />
		<path
   class="st0"
   d="m 164.8,194.7 1.8,-0.4 -0.1,-0.6 c 0.5,0.4 1.3,0.6 1.9,0.5 1.8,-0.4 2.5,-2.4 2.1,-4.1 -0.4,-1.8 -1.8,-3.3 -3.7,-2.9 -0.7,0.1 -1.2,0.6 -1.5,1.2 v 0 l -0.1,-0.6 -1.8,0.4 z m 2,-5.9 c 0.9,-0.2 1.7,0.6 1.9,1.5 0.3,0.8 0,1.7 -0.8,2 -0.8,0.3 -1.7,0 -2,-0.8 -0.1,-0.2 -0.1,-0.4 -0.1,-0.6 -0.4,-0.8 0.1,-1.7 1,-2.1"
   id="path31" />
		<path
   class="st0"
   d="m 156.3,190.7 c -0.9,0 -1.6,0.8 -1.6,1.7 0,0.9 0.8,1.6 1.7,1.6 0.9,0 1.6,-0.8 1.6,-1.7 0,0 0,-0.1 0,-0.1 -0.1,-0.9 -0.8,-1.6 -1.7,-1.5 0,0 0,0 0,0"
   id="path32" />
		<path
   class="st0"
   d="m 150,193.6 c 0.1,-2.5 -0.9,-4.5 -3.5,-4.6 -2.6,-0.1 -3.7,1.8 -3.8,4.3 l -0.2,6.2 1.9,0.1 0.2,-5.8 c 0.1,-1.3 0.2,-3.1 1.8,-3 1.6,0.1 1.7,1.9 1.6,3.1 l -0.2,5.8 1.9,0.1 z"
   id="path33" />
		<path
   class="st0"
   d="m 137.7,195.3 1.8,0.2 0.9,-6.7 -1.8,-0.3 -0.5,3.3 c -0.1,0.8 -0.3,2.1 -1.4,1.9 -1.1,-0.2 -0.8,-1.2 -0.7,-2 l 0.5,-3.6 -1.8,-0.3 -0.6,4.1 c -0.2,1.6 0.1,2.9 1.8,3.1 0.7,0.1 1.3,-0.1 1.8,-0.6 v 0 z"
   id="path34" />
		<path
   class="st0"
   d="m 129.4,193.8 1.8,0.4 1.4,-6.6 -1.8,-0.4 z m 0,4.1 c 0.6,0.2 1.2,-0.2 1.4,-0.8 0.2,-0.6 -0.2,-1.2 -0.8,-1.4 -0.6,-0.2 -1.2,0.2 -1.4,0.8 0,0 0,0 0,0.1 -0.1,0.6 0.3,1.2 0.8,1.3"
   id="path35" />
		<polygon
   class="st0"
   points="127.4,193.4 126.6,185.9 125.7,185.7 120.9,191.4 122.8,192 125.2,188.7 125.5,192.8 "
   id="polygon35" />
		<path
   class="st0"
   d="m 115.2,185.2 -0.1,0.2 c -0.8,1.9 -0.5,3.8 1.4,4.6 1.9,0.8 3.5,-0.3 4.3,-2.2 0.8,-1.9 0.2,-3.7 -1.7,-4.5 -1.2,-0.5 -2.6,-0.2 -3.5,0.9 l 1.4,0.9 c 0.4,-0.4 1,-0.6 1.5,-0.4 0.9,0.4 0.8,1.4 0.5,2.2 z m 3.4,2.7 c -0.3,0.7 -1,1 -1.7,0.8 -0.6,-0.3 -0.9,-1.1 -0.6,-1.7 z"
   id="path36" />
		<path
   class="st0"
   d="m 110.2,186.9 1.6,0.8 3,-6.1 -1.7,-0.8 -1.3,2.7 c -0.5,0.9 -1.1,2 -2.2,1.4 -0.2,-0.1 -0.4,-0.3 -0.6,-0.6 l -1,1.5 c 0.2,0.2 0.4,0.4 0.6,0.5 0.6,0.3 1.3,0.2 1.8,-0.1 v 0 z"
   id="path37" />
		<path
   class="st0"
   d="m 103,182.3 c 0.3,0.7 0.8,1.3 1.4,1.7 0.9,0.6 2.2,0.3 2.8,-0.6 0,-0.1 0.1,-0.1 0.1,-0.2 0.4,-0.7 0.4,-1.6 -0.2,-2.2 -0.4,-0.6 -0.9,-1 -0.6,-1.5 0.2,-0.3 0.6,-0.5 0.9,-0.3 0,0 0,0 0.1,0 0.4,0.3 0.7,0.8 0.8,1.4 l 1.3,-0.6 c -0.1,-0.9 -0.6,-1.7 -1.3,-2.1 -1.1,-0.7 -2.5,-0.5 -3.3,0.6 0,0.1 -0.1,0.1 -0.1,0.2 -0.5,0.7 -0.4,1.7 0.1,2.3 0.4,0.6 0.9,1.1 0.7,1.5 -0.2,0.3 -0.5,0.3 -0.8,0.2 -0.3,-0.2 -0.5,-0.5 -0.6,-0.9 z"
   id="path38" />
		<path
   class="st0"
   d="m 99,180.2 1.5,1.1 3.9,-5.5 -1.5,-1 z m -1.5,3.8 c 0.5,0.4 1.2,0.3 1.6,-0.2 0.4,-0.5 0.3,-1.2 -0.2,-1.6 -0.5,-0.4 -1.2,-0.3 -1.6,0.2 0,0 0,0 0,0.1 -0.4,0.4 -0.3,1.1 0.2,1.5"
   id="path39" />
		<polygon
   class="st0"
   points="98.4,177.8 97.9,177.4 101,173.3 99.5,172.2 96.4,176.3 95.5,175.6 94.6,176.9 95.4,177.6 94.1,179.4 95.5,180.5 96.9,178.7 97.4,179.1 "
   id="polygon39" />
		<path
   class="st0"
   d="m 91.3,169.1 -0.2,0.2 c -1.4,1.5 -1.8,3.4 -0.2,4.8 1.6,1.4 3.4,0.9 4.8,-0.6 1.4,-1.5 1.5,-3.4 0,-4.8 -1,-0.9 -2.4,-1.1 -3.6,-0.4 l 1.1,1.3 c 0.5,-0.3 1.1,-0.2 1.5,0.1 0.7,0.6 0.3,1.6 -0.3,2.2 z m 2.3,3.7 c -0.5,0.5 -1.3,0.6 -1.8,0.2 -0.5,-0.5 -0.5,-1.3 0,-1.8 z"
   id="path40" />
		<path
   class="st0"
   d="m 86,169 1.3,1.3 4.9,-4.7 -1.3,-1.3 z m -2.2,3.4 c 0.4,0.5 1.2,0.5 1.6,0 0.4,-0.5 0.5,-1.2 0,-1.6 -0.5,-0.4 -1.2,-0.5 -1.6,0 0,0 0,0 0,0 -0.4,0.4 -0.4,1.1 0,1.6"
   id="path41" />
		<polygon
   class="st0"
   points="85.9,166.4 85.4,166 89.3,162.5 88,161.2 84.2,164.6 83.5,163.8 82.3,164.9 83,165.7 81.3,167.2 82.5,168.6 84.2,167.1 84.7,167.5 "
   id="polygon41" />
		<polygon
   class="st0"
   points="78.5,160.1 82.7,153.8 82.2,153 74.8,154.3 75.9,156 79.8,155 77.4,158.4 "
   id="polygon42" />
		<path
   class="st0"
   d="m 70.9,147.3 0.8,1.6 0.6,-0.3 c -0.3,0.6 -0.2,1.4 0.1,2 0.9,1.6 3,1.8 4.5,0.9 1.6,-0.8 2.7,-2.6 1.8,-4.3 -0.3,-0.6 -0.9,-1 -1.6,-1.1 v 0 l 0.5,-0.3 -0.8,-1.6 z m 6.1,0.4 c 0.3,0.9 -0.1,1.9 -1,2.2 -0.7,0.6 -1.6,0.5 -2.2,-0.2 -0.6,-0.7 -0.5,-1.6 0.2,-2.2 0.2,-0.1 0.4,-0.3 0.6,-0.3 0.8,-0.5 1.8,-0.3 2.4,0.5"
   id="path42" />
		<path
   class="st0"
   d="m 68.9,143 0.7,1.7 6.3,-2.5 -0.7,-1.7 -3.1,1.3 c -0.8,0.3 -1.9,0.8 -2.3,-0.2 -0.4,-1 0.6,-1.3 1.3,-1.6 l 3.3,-1.3 -0.7,-1.7 -3.8,1.6 c -1.4,0.6 -2.4,1.5 -1.8,3.1 0.2,0.6 0.7,1.1 1.4,1.2 v 0 z"
   id="path43" />
		<polygon
   class="st0"
   points="70.6,125.8 70.1,123.3 65.5,128.4 60,125.8 60.5,128.1 65.4,130.1 65.4,130.2 61.2,131.1 61.6,133 71.7,130.8 71.3,128.9 66.8,129.9 66.7,129.8 "
   id="polygon43" />
		<path
   class="st0"
   d="m 62.3,116.7 0.2,1.8 0.6,-0.1 c -0.5,0.5 -0.7,1.2 -0.6,1.9 0.2,1.8 2.1,2.7 3.9,2.4 1.8,-0.2 3.5,-1.5 3.2,-3.4 -0.1,-0.7 -0.5,-1.2 -1,-1.6 v 0 l 0.6,-0.1 -0.2,-1.9 z m 5.7,2.5 c 0.1,0.9 -0.8,1.6 -1.7,1.8 -0.9,0.2 -1.8,-0.4 -2.1,-1.3 -0.1,-0.9 0.8,-1.6 1.7,-1.8 0.9,-0.2 1.8,0.3 2.1,1.3"
   id="path44" />
		<path
   class="st0"
   d="m 62,107.7 v 1.8 h 0.6 c -0.5,0.5 -0.8,1.1 -0.8,1.8 0,1.8 1.8,2.9 3.6,2.8 1.8,0 3.6,-1.2 3.6,-3 0,-0.7 -0.3,-1.3 -0.9,-1.7 v 0 h 0.6 v -1.8 z m 5.4,3 c 0,0.9 -0.9,1.5 -1.9,1.6 -0.8,0.3 -1.7,-0.2 -2,-1 -0.3,-0.8 0.2,-1.7 1,-2 0.3,-0.1 0.6,-0.1 0.9,0 1,-0.2 1.8,0.5 2,1.4"
   id="path45" />
		<path
   class="st0"
   d="m 62.3,102.9 -0.1,1.8 10.3,0.8 0.1,-1.8 -4.2,-0.3 v 0 c 0.6,-0.4 1,-1 1,-1.6 0.2,-1.9 -1.5,-3.1 -3.4,-3.2 -1.8,-0.2 -3.6,0.8 -3.8,2.6 -0.1,0.7 0.2,1.4 0.7,1.8 z m 5.4,-0.9 c -0.2,0.9 -1.1,1.5 -2,1.3 -0.9,-0.1 -1.8,-0.7 -1.8,-1.7 0.2,-0.9 1.1,-1.5 2,-1.4 0.9,0.2 1.9,0.8 1.8,1.8"
   id="path46" />
		<path
   class="st0"
   d="m 64.3,91.6 c -0.6,0.5 -1,1.2 -1.1,1.9 -0.2,1.1 0.5,2.1 1.5,2.4 0.1,0 0.2,0 0.3,0 0.8,0.2 1.6,-0.2 2,-0.9 0.4,-0.6 0.7,-1.2 1.2,-1.1 0.4,0.1 0.6,0.4 0.6,0.8 0,0 0,0 0,0.1 -0.1,0.5 -0.5,1 -1,1.2 l 1,1 c 0.8,-0.4 1.4,-1.1 1.5,-2 0.3,-1.3 -0.5,-2.6 -1.7,-2.9 -0.1,0 -0.1,0 -0.2,0 -0.8,-0.2 -1.7,0.2 -2.2,0.9 -0.4,0.6 -0.7,1.2 -1.2,1.1 -0.3,-0.1 -0.5,-0.4 -0.5,-0.7 0.1,-0.4 0.3,-0.7 0.6,-0.9 z"
   id="path47" />
		<polygon
   class="st0"
   points="65.8,89.9 66,89.3 71,90.6 71.4,88.8 66.4,87.6 66.7,86.5 65.1,86.1 64.9,87.2 62.6,86.6 62.2,88.4 64.4,88.9 64.3,89.6 "
   id="polygon47" />
		<path
   class="st0"
   d="m 67.6,78.3 -0.6,1.8 0.6,0.2 c -0.6,0.3 -1.1,0.8 -1.4,1.4 -0.6,1.8 0.8,3.3 2.5,3.9 1.7,0.5 3.8,0.1 4.4,-1.7 0.2,-0.6 0.1,-1.4 -0.3,-1.9 v 0 l 0.6,0.2 0.6,-1.7 z m 4,4.7 c -0.4,0.9 -1.4,1.2 -2.3,0.9 -0.9,-0.2 -1.4,-1.1 -1.2,-2 0.4,-0.8 1.4,-1.2 2.3,-0.9 0.8,0.1 1.4,1 1.2,2"
   id="path48" />
		<path
   class="st0"
   d="m 76.7,74.4 0.8,-1.7 -10.6,-4.9 -0.9,1.7 5,2.3 v 0 c -0.7,0.2 -1.2,0.6 -1.5,1.2 -0.8,1.7 0.4,3.4 2,4.2 1.6,0.8 3.8,0.6 4.5,-1.2 0.3,-0.6 0.3,-1.3 0,-1.9 v 0 z m -2,0.6 c -0.5,0.8 -1.5,1.1 -2.4,0.6 -0.7,-0.5 -0.8,-1.5 -0.3,-2.2 0.5,-0.7 1.5,-0.8 2.2,-0.3 0.7,0.5 0.9,1.3 0.5,1.9"
   id="path49" />
		<path
   class="st0"
   d="m 78.8,66 c 0.4,-0.8 0.2,-1.7 -0.5,-2.2 -0.8,-0.4 -1.7,-0.2 -2.1,0.6 -0.4,0.8 -0.2,1.7 0.6,2.1 0.6,0.4 1.5,0.2 2,-0.5"
   id="path50" />
		<path
   d="m 105.5,57.4 h 86.4 V 112 c 0,43.8 -43.2,58.5 -43.2,58.5 0,0 -43.2,-14.6 -43.2,-58.4 z"
   id="path51" />
		<path
   class="st1"
   d="M 190.6,58.6 V 112 c 0,40.4 -37.6,55.5 -41.9,57.1 -4.3,-1.6 -41.9,-16.7 -41.9,-57 V 58.6 Z"
   id="path52" />
		<path
   d="m 186.8,112 c 0,35.1 -30.4,49.8 -38.1,53 -7.7,-3.2 -38.1,-17.9 -38.1,-53 V 62.5 h 76.2 z"
   id="path53" />
		<path
   d="M 148.7,163.6 C 140.3,160.1 111.8,145.5 111.8,112 V 63.7 h 73.7 V 112 c 0,33.5 -28.5,48.1 -36.8,51.6"
   id="path54" />
		<path
   class="st1"
   d="m 149,99.7 c 1.4,-0.1 2.6,1.1 2.7,2.5 0,0.1 0,0.1 0,0.2 0,0.5 -0.1,1 -0.4,1.4 h -0.2 c 0,0 -0.1,0 -0.1,-0.1 0,-0.1 0.1,-0.4 0.2,-0.6 0.1,-0.2 0.1,-0.5 0.1,-0.8 0,-0.8 -0.7,-2.2 -1.6,-2.2 H 149 c -0.1,0 -0.2,0.1 -0.2,0.2 0.1,0.4 0.5,0.4 0.8,0.7 0.4,0.4 0.6,1 0.6,1.6 0,0.3 -0.3,1.3 -0.9,1.3 H 147 c -0.5,0 -0.6,-0.8 -0.6,-1 0,-0.2 -0.1,-0.3 -0.1,-0.4 0,-1.6 1.2,-2.8 2.7,-2.8"
   id="path55" />
		<path
   class="st1"
   d="m 149.2,97.6 c 0.5,0 1,0.2 1.5,0.5 0.1,0.1 0.3,0.2 0.3,0.3 0.2,0.4 0.4,0.8 0.6,1.2 v 0.6 c -0.7,-0.7 -1.6,-1 -2.6,-1 -0.9,0 -1.7,0.4 -2.4,1 0,-0.1 -0.1,0 -0.1,-0.2 0,-0.1 0.1,-0.2 0.1,-0.4 0.3,-1.1 1.4,-1.9 2.6,-1.9"
   id="path56" />
		<path
   class="st1"
   d="m 153.1,97.3 c 2,0.3 3.9,1 5.6,1.9 -0.1,0.1 -0.2,0.1 -0.3,0.2 -1.4,0.2 -2.9,0.4 -4.4,0.5 -0.3,-0.8 -1,-2.2 -1,-2.4 0,-0.2 0,-0.1 0.1,-0.2"
   id="path57" />
		<path
   class="st1"
   d="m 144.8,97.3 0.6,0.1 c -0.6,0.8 -1,1.8 -1.2,2.7 h -0.8 c -1.6,-0.1 -3.1,-0.4 -4.6,-0.8 1.9,-1 3.9,-1.7 6,-2"
   id="path58" />
		<path
   class="st1"
   d="m 150.8,97 c 0.3,0 0.6,0 0.9,0.1 0.7,0.2 1.4,1.8 1.4,2.4 0,0.2 0,0.3 0.1,0.5 -0.1,0.1 -0.1,0.1 0,0.7 0,0.8 -0.3,1.5 -0.9,2 -0.1,-0.9 -0.2,-1.8 -0.2,-2.7 0,-0.7 -0.3,-1.4 -0.8,-1.8 -0.5,-0.6 -1.3,-1 -2.1,-0.9 -1.6,0 -3,1.2 -3.1,2.8 0,0.1 0,0.1 -0.1,0.2 0,0.2 0,0.4 0,0.6 -0.2,0.6 -0.3,1.2 -0.3,1.8 -0.4,0 -0.7,-1.2 -0.7,-1.5 0,-0.1 -0.1,-0.3 -0.1,-0.4 0,-1.1 0.9,-3.4 1.9,-3.6 z"
   id="path59" />
		<path
   class="st1"
   d="m 141.8,96 c 0.2,0 0.4,0.9 0.4,0.9 0,0.4 -0.4,0.3 -0.7,0.4 -0.5,0.2 -1,0.4 -1.6,0.6 -0.7,0.2 -1.3,0.5 -1.9,0.8 -0.2,-0.3 -0.4,-0.6 -0.4,-1 0,-0.3 4,-1.7 4.2,-1.7"
   id="path60" />
		<path
   class="st1"
   d="m 155.7,96 c 0.3,0 4.4,1.4 4.4,1.8 0,0.2 -0.3,0.8 -0.4,0.8 -0.2,0 -1.2,-0.5 -1.8,-0.7 -0.6,-0.2 -1.5,-0.5 -2.3,-0.8 -0.1,0 -0.2,-0.2 -0.2,-0.3 -0.1,0 0.1,-0.8 0.3,-0.8"
   id="path61" />
		<path
   class="st1"
   d="m 138.3,95.4 c 0.2,0.3 0.3,0.7 0.4,1 0,0.2 -1.1,0.7 -1.3,0.7 -0.2,-0.3 -0.4,-0.6 -0.5,-1 0,-0.2 1,-0.7 1.4,-0.7"
   id="path62" />
		<path
   class="st1"
   d="m 159.3,95.3 c 0.1,0 1.5,0.6 1.5,0.8 -0.1,0.3 -0.3,0.6 -0.4,0.9 -0.1,0 -1.5,-0.5 -1.5,-0.8 0,-0.1 0.3,-0.9 0.4,-0.9"
   id="path63" />
		<path
   class="st1"
   d="m 149.5,95 h 1.2 c 1.5,0.1 3,0.3 4.5,0.8 v 0.3 c 0,0.2 -0.2,0.8 -0.4,0.8 -0.2,0 -1.4,-0.3 -2.1,-0.4 -0.7,-0.1 -1.3,-0.1 -1.9,-0.2 L 149.2,96.2 149,96 v -0.8 c 0.2,-0.1 0.3,-0.2 0.5,-0.2"
   id="path64" />
		<path
   class="st1"
   d="m 148.6,95 c 0.1,0.1 0.2,0.3 0.2,0.5 0,0.7 -0.3,0.8 -1,0.8 h -0.7 c -0.8,0 -4,0.7 -4.3,0.7 -0.3,0 -0.4,-0.7 -0.4,-0.9 0,-0.1 0,-0.2 0.1,-0.3 0.4,-0.1 0.8,-0.2 1.2,-0.3 1.1,-0.2 2.3,-0.3 3.4,-0.5 z"
   id="path65" />
		<path
   class="st1"
   d="m 152.7,93.5 c 0.6,0 6.1,1.2 6.1,1.7 -0.1,0.4 -0.2,0.7 -0.4,1 -1.1,-0.4 -2.2,-0.8 -3.4,-1 -0.9,-0.1 -1.7,-0.3 -2.6,-0.6 0,-0.6 0.1,-0.6 0,-0.7 -0.1,-0.1 0,-0.4 0.3,-0.4"
   id="path66" />
		<path
   class="st1"
   d="m 145,93.5 c 0.2,0.3 0.3,0.7 0.2,1 0,0.3 -0.4,0.3 -0.6,0.3 -0.9,0.1 -1.7,0.3 -2.5,0.6 -0.9,0.3 -2.1,0.7 -3,0.9 -0.2,-0.3 -0.3,-0.6 -0.4,-0.9 0,-0.4 1.1,-0.6 1.2,-0.6 1.6,-0.7 3.4,-1.1 5.1,-1.3"
   id="path67" />
		<path
   class="st1"
   d="m 150.4,93.2 c 0.1,0 1,0.1 1.6,0.2 0.1,0.1 0.2,0.2 0.2,0.3 0,0.2 -0.1,0.3 -0.1,0.5 0,0 0,0.3 -0.1,0.4 -1.3,0 -1.8,-0.2 -2,-0.2 h -2.4 c -0.1,0 -1.2,0.1 -1.7,0.2 -0.2,-0.3 -0.2,-0.5 -0.2,-0.8 0,-0.1 0,-0.2 0.1,-0.3 0.5,-0.1 1.1,-0.2 1.6,-0.2 z"
   id="path68" />
		<path
   class="st1"
   d="m 140.9,92.6 c 0.1,0 0.2,0 0.2,0.1 0.1,0.3 0.2,0.5 0.2,0.8 v 0.3 l -4.7,1.7 c -0.2,-0.3 -0.3,-0.6 -0.4,-0.9 0,-0.2 0.6,-0.5 0.7,-0.5 1.4,-0.7 2.7,-1.2 4,-1.5"
   id="path69" />
		<path
   class="st1"
   d="m 156.5,92.5 c 0.3,0 5,1.6 5,2 -0.1,0.3 -0.2,0.6 -0.3,0.8 0,0 0,0.1 -0.2,0.1 -0.2,0 -2.2,-0.9 -3.3,-1.2 -0.4,-0.2 -1,-0.2 -1.5,-0.4 -0.1,-0.1 -0.2,-0.2 -0.2,-0.3 0.1,-0.3 0.1,-0.6 0.3,-0.8 0.2,-0.1 0.2,-0.1 0.2,-0.2"
   id="path70" />
		<path
   class="st1"
   d="m 137,92.1 c 0.1,0 0.1,0.1 0.2,0.1 0.1,0.3 0.2,0.5 0.3,0.8 0,0.2 -1.3,0.7 -1.5,0.8 -0.2,-0.3 -0.3,-0.6 -0.4,-1 0.4,-0.3 0.9,-0.5 1.4,-0.7"
   id="path71" />
		<path
   class="st1"
   d="m 160.5,92 c 0.6,0.2 1.2,0.5 1.6,0.9 0,0.2 -0.3,0.9 -0.5,0.9 -0.2,0 -1,-0.5 -1.5,-0.7 -0.1,0 -0.1,0 -0.1,-0.2 0,-0.2 0.2,-0.4 0.2,-0.6 0,-0.2 0.1,-0.3 0.3,-0.3"
   id="path72" />
		<path
   class="st1"
   d="m 149.8,91.4 c 0.1,0 0.9,0 1.9,0.1 0.7,0.1 4.2,0.6 4.2,1 0,0.4 -0.1,0.7 -0.3,1 -0.7,-0.2 -1.5,-0.3 -2.2,-0.4 -1.1,-0.2 -3.2,-0.4 -3.3,-0.4 h -0.7 c -0.1,-0.1 -0.2,-0.2 -0.2,-0.3 0,-0.2 0,-0.3 0,-0.5 -0.1,-0.5 0.2,-0.5 0.6,-0.5"
   id="path73" />
		<path
   class="st1"
   d="m 148.4,91.4 c 0.1,0 0.2,0 0.3,0.1 0.1,0.3 0.1,0.7 0.1,1 0,0.1 -0.1,0.1 -0.2,0.2 h -1 c -1.2,0 -5.5,0.8 -5.8,0.8 -0.1,-0.3 -0.2,-0.5 -0.3,-0.8 v -0.3 c 1.5,-0.5 3.1,-0.7 4.6,-0.8 1,-0.1 2.1,-0.2 2.3,-0.2"
   id="path74" />
		<path
   class="st1"
   d="m 158.4,91.3 h 0.2 c 0.1,0 1.3,0.4 1.3,0.6 0,0.2 -0.3,0.9 -0.5,0.9 -0.4,-0.1 -0.9,-0.2 -1.3,-0.4 0,0 -0.1,-0.1 -0.1,-0.2 0.1,-0.3 0.2,-0.6 0.4,-0.9"
   id="path75" />
		<path
   class="st1"
   d="m 139.1,91.3 c 0.2,0 0.4,0.9 0.4,0.9 0,0 0,0.2 -0.1,0.2 -0.4,0.2 -0.9,0.4 -1.4,0.5 -0.2,0 -0.5,-0.9 -0.5,-1 0.6,-0.2 1.1,-0.4 1.6,-0.6"
   id="path76" />
		<path
   class="st1"
   d="m 153,90 h 0.4 c 0.4,0.1 0.9,0.2 1.3,0.3 0,0.1 0.1,0 0.1,0.2 0,0.2 -0.2,0.9 -0.4,0.9 -0.2,0 -0.9,-0.1 -1.4,-0.2 -0.1,-0.1 -0.2,-0.2 -0.2,-0.3 0,-0.3 0.1,-0.6 0.2,-0.9"
   id="path77" />
		<path
   class="st1"
   d="m 144.6,90 c 0.2,0 0.3,0.8 0.3,0.9 0,0.5 -1.5,0.5 -1.8,0.5 -0.1,-0.3 -0.2,-0.6 -0.2,-0.9 -0.1,-0.2 1.5,-0.5 1.7,-0.5"
   id="path78" />
		<path
   class="st1"
   d="m 150.8,89.8 c 0.2,0 1.7,-0.2 1.7,0.4 0,0.3 -0.1,0.5 -0.1,0.8 -0.1,0.1 -0.3,0.1 -0.4,0.1 -0.4,0 -0.9,0 -1.2,-0.2 -0.1,-0.1 -0.1,-0.2 -0.1,-0.3 -0.1,-0.3 0,-0.5 0.1,-0.8"
   id="path79" />
		<path
   class="st1"
   d="m 146.3,89.8 h 0.6 c 0.1,0.2 0.2,0.5 0.2,0.7 0,0.1 0,0.2 0,0.2 -0.3,0.2 -0.6,0.3 -0.9,0.3 h -0.7 c -0.1,-0.3 -0.1,-0.5 -0.2,-0.8 -0.1,-0.4 0.7,-0.4 1,-0.4"
   id="path80" />
		<path
   class="st1"
   d="m 159,89.6 c 0.2,0 3.9,1.4 3.9,1.6 -0.1,0.4 -0.3,0.7 -0.5,1 -1.3,-0.6 -2.5,-1.1 -3.8,-1.5 0,0 -0.1,0 -0.1,-0.1 0,-0.1 0.3,-1 0.5,-1"
   id="path81" />
		<path
   class="st1"
   d="m 138.7,89.6 c 0.2,0 0.4,1 0.4,1 0,0 -0.1,0.2 -0.2,0.2 -0.7,0.3 -2,0.8 -2.2,0.8 -0.2,0 -1.1,0.4 -1.4,0.6 -0.2,-0.3 -0.3,-0.7 -0.4,-1 0,-0.4 3.7,-1.7 3.8,-1.6"
   id="path82" />
		<path
   class="st1"
   d="m 151.1,88 c 0.4,0 3.3,0.4 3.8,0.5 0.1,0 0.1,0.1 0.1,0.2 0,0.2 -0.1,0.9 -0.4,1 l -3.8,-0.6 c 0,-0.3 0,-0.7 0,-1 0,0 0.2,0 0.3,-0.1"
   id="path83" />
		<path
   class="st1"
   d="m 146.3,88 c 0.2,0 0.5,0.1 0.7,0.2 0,0.3 0.1,0.5 0.1,0.8 0,0.1 -0.1,0.2 -0.2,0.3 -1.3,0.1 -2.7,0.3 -4,0.5 -0.1,-0.3 -0.2,-0.6 -0.2,-0.9 0,-0.1 0,-0.2 0.1,-0.3 1.1,-0.3 2.3,-0.5 3.5,-0.6"
   id="path84" />
		<path
   class="st1"
   d="m 145.1,85 h 8 c 0.3,-0.1 0.8,0.3 1,0.7 v 0.1 H 144 c 0.2,-0.5 0.6,-0.8 1.1,-0.8"
   id="path85" />
		<path
   class="st1"
   d="m 145.7,84.2 h 6.5 c 0,0.1 0.4,0.2 0.4,0.3 -0.1,0.1 -0.2,0.1 -0.3,0.1 h -6.9 c -0.1,-0.1 -0.1,0 -0.1,-0.2 0,-0.2 0.2,-0.1 0.4,-0.2"
   id="path86" />
		<path
   class="st1"
   d="m 146.6,83.3 4.7,0.1 c 0.1,0 0.4,0.2 0.4,0.3 0,0.1 -0.2,0.2 -0.2,0.3 h -4.8 c -0.3,-0.1 -0.5,0 -0.5,-0.3 0.1,-0.3 0.2,-0.4 0.4,-0.4 0,0 0,0 0,0"
   id="path87" />
		<path
   class="st1"
   d="m 147.6,82.3 h 3 c 0.2,0 0.5,0.2 0.5,0.4 0,0.2 -0.1,0.2 -0.3,0.2 h -3.7 c -0.2,-0.1 -0.3,-0.2 -0.4,-0.4 0.3,-0.3 0.7,-0.2 0.9,-0.2"
   id="path88" />
		<path
   class="st1"
   d="m 146.8,80.8 c 0.8,0.1 1.6,0.2 2.4,0.3 0.7,-0.1 1.4,-0.2 2.1,-0.3 V 81 c -0.1,0.3 -0.2,0.6 -0.4,0.8 -0.2,0.1 -0.5,0.1 -0.8,0.1 h -2.9 c -0.1,0 -0.1,-0.2 -0.1,-0.2 -0.1,-0.2 -0.3,-0.5 -0.3,-0.8 z"
   id="path89" />
		<path
   class="st1"
   d="m 143.6,78.7 c 0.3,0 0.9,0.6 0.9,0.9 h -0.3 c -0.4,-0.1 -0.7,-0.3 -0.9,-0.7 0,-0.1 0.1,-0.2 0.3,-0.2"
   id="path90" />
		<path
   class="st1"
   d="m 144.9,78.6 c 0.6,0 1,0.9 1.1,1.2 -0.1,0.1 -0.1,0.1 -0.2,0.1 -0.6,-0.1 -1,-0.6 -1.2,-1.1 0,-0.1 0.2,-0.2 0.3,-0.2"
   id="path91" />
		<path
   class="st1"
   d="m 146.4,78.6 c 0.5,0 0.6,1 0.6,1.1 0,0.2 -0.1,0.3 -0.3,0.4 -0.4,-0.3 -0.6,-0.7 -0.6,-1.1 0,-0.3 0.1,-0.4 0.3,-0.4"
   id="path92" />
		<path
   class="st1"
   d="m 153.2,78.5 c 0.1,0 0.2,0.1 0.2,0.2 0,0 0,0 0,0 0,0.3 -0.7,0.9 -0.9,1.1 h -0.2 c -0.1,-0.1 -0.1,0 -0.1,-0.2 0,-0.2 0.6,-1.1 1,-1.1"
   id="path93" />
		<path
   class="st1"
   d="m 152,78.5 c 0.2,0 0.3,0.1 0.3,0.3 0,0 0,0 0,0 0,0.2 -0.6,1.2 -1,1.2 -0.1,0 -0.2,-0.1 -0.2,-0.2 0,0 0,0 0,-0.1 -0.1,-0.2 0.4,-1.2 0.9,-1.2"
   id="path94" />
		<path
   class="st1"
   d="m 150.4,78.5 c 0.3,0 0.4,0.4 0.4,0.5 0,0.1 -0.3,1.2 -0.6,1.2 -0.3,0 -0.3,-0.7 -0.3,-0.7 0,-0.2 0,-1 0.5,-1"
   id="path95" />
		<path
   class="st1"
   d="m 149,78.5 c 0.4,0 0.4,0.6 0.4,0.8 0,0.2 -0.1,1 -0.4,1 -0.3,0 -0.5,-1 -0.5,-1 0.1,-0.3 0.2,-0.7 0.5,-0.8"
   id="path96" />
		<path
   class="st1"
   d="m 147.7,78.5 c 0.4,0 0.6,0.6 0.6,0.8 0,0.2 -0.2,0.8 -0.4,0.8 -0.4,0 -0.6,-1.1 -0.6,-1.2 0,-0.1 0.1,-0.4 0.4,-0.4"
   id="path97" />
		<path
   class="st1"
   d="m 139,75.1 c 0.4,0 0.4,0.6 0.4,0.8 0,1 -1.4,1.3 -1.9,1.3 -1.4,-0.2 -2.7,-1 -3.6,-2.1 z"
   id="path98" />
		<path
   class="st1"
   d="m 158.1,75 c -0.6,1.4 -1.7,2.6 -3,3.3 -0.1,0.1 -0.5,-0.2 -0.6,-0.2 -0.1,0 -0.6,0.2 -0.7,0.2 -0.1,0 -0.5,-0.2 -0.6,-0.2 -0.1,0 -0.4,0.2 -0.5,0.2 -0.1,0 -0.5,-0.2 -0.7,-0.2 -0.2,0 -0.7,0.2 -0.7,0.2 -0.1,0 -0.5,-0.2 -0.7,-0.2 -0.1,0 -0.6,0.2 -0.8,0.2 -0.2,0 -0.6,-0.2 -0.7,-0.2 -0.1,0 -0.5,0.2 -0.6,0.2 -0.1,0 -0.5,-0.2 -0.6,-0.2 -0.1,0 -0.7,0.3 -0.8,0.3 -0.1,0 -0.6,-0.2 -0.7,-0.2 -0.1,0 -0.4,0.2 -0.6,0.2 -0.1,0 -0.6,-0.2 -0.8,-0.2 -0.1,0 -0.6,0.2 -0.7,0.2 -0.1,0 -0.7,-0.2 -0.8,-0.2 -0.4,0 -0.7,0.4 -0.8,0.4 -0.1,0 -0.4,-0.2 -0.5,-0.3 -0.7,-0.6 -1.2,-1.2 -1.7,-2 -0.2,-0.4 -0.4,-0.8 -0.6,-1.3 z"
   id="path99" />
		<path
   class="st1"
   d="m 160,74 v 0.4 c -0.1,-0.2 -0.1,-0.1 -0.2,-0.1 h -19.5 c -0.3,0 -0.6,0 -0.9,-0.1 V 74 Z"
   id="path100" />
		<path
   class="st1"
   d="m 131.9,73.3 c 0.4,0 0.6,0.7 1.2,0.7 h 5.7 c 0.1,0.1 0.2,0.2 0.2,0.3 h -6.6 c -0.2,0 -0.9,-0.4 -0.9,-0.8 0,-0.4 0.3,-0.2 0.4,-0.2"
   id="path101" />
		<path
   class="st1"
   d="m 151.7,72 h 0.2 c 0.6,0.4 1.2,0.8 1.7,1.3 -0.1,0.1 -0.2,0.2 -0.3,0.2 -0.6,0 -1.6,-0.9 -1.6,-1.3 -0.1,-0.1 -0.1,-0.1 0,-0.2"
   id="path102" />
		<path
   class="st1"
   d="m 149.4,71.9 c 0.3,0 0.5,0.8 0.5,0.9 0,0.3 -0.2,0.5 -0.5,0.6 0,0 -0.1,0 -0.1,0 -0.4,0 -0.5,-0.2 -0.5,-0.4 0,-0.2 0.3,-1.1 0.6,-1.1"
   id="path103" />
		<path
   class="st1"
   d="m 150.3,71.9 h 0.2 c 0.4,0 1.1,1.1 1.1,1.2 0,0.3 -0.3,0.4 -0.5,0.4 -0.6,0 -1,-1 -1,-1.2 0.1,-0.2 0.1,-0.3 0.2,-0.4"
   id="path104" />
		<path
   class="st1"
   d="m 147.3,71.9 c 0.1,0.1 0.1,0.1 0.1,0.2 0,0.3 -0.9,1.3 -1.2,1.3 h -0.6 c -0.1,0 -0.1,0 -0.1,-0.2 0.5,-0.5 1.1,-1 1.8,-1.3"
   id="path105" />
		<path
   class="st1"
   d="m 148.5,71.8 c 0.2,0 0.2,0.2 0.2,0.2 0,0.4 -0.5,1.4 -1,1.4 -0.2,0 -0.4,-0.1 -0.4,-0.3 0,-0.2 0.7,-1.3 1.2,-1.3"
   id="path106" />
		<path
   class="st1"
   d="m 147.6,70.8 h 4 c 0,0.1 0.2,0.2 0.2,0.3 0,0.1 -0.1,0.1 -0.3,0.2 h -4.1 c -0.1,0 -0.1,0 -0.2,-0.1 V 71 l 0.4,-0.2"
   id="path107" />
		<path
   class="st1"
   d="m 162.8,70.5 c 1.5,0 3.4,0.9 3.4,2.7 0,2.1 -3,3.8 -4.8,4.1 -0.7,0.1 -1.5,0.4 -2.2,0.5 -1.4,0.1 -2.8,0.7 -3.9,1.6 -0.1,0 -0.1,0 -0.1,-0.2 0,-0.7 2.2,-1.6 2.3,-1.7 1.8,-0.4 3.6,-1 5.4,-1.7 1.5,-0.7 2.3,-1.7 2.3,-2.8 0,-1.1 -1.4,-1.7 -2.2,-1.7 -0.5,0 -1.8,0.3 -2,0.7 0,0.1 0.2,0.1 0.3,0.2 0.2,0.1 0.3,0.3 0.3,0.5 0,0.5 -0.5,0.9 -1,0.8 -0.6,0 -1.2,-0.3 -1.2,-0.9 0.1,-0.2 0.2,-0.4 0.3,-0.6 0.7,-1 1.9,-1.6 3.1,-1.5"
   id="path108" />
		<path
   class="st1"
   d="m 149.4,68.5 c 0.4,0 0.8,0.3 0.9,0.7 0,0.5 -0.4,0.8 -0.9,0.8 -0.4,0 -0.7,-0.3 -0.8,-0.7 0,-0.5 0.4,-0.8 0.8,-0.8 0,0 0,0 0,0"
   id="path109" />
		<path
   class="st1"
   d="m 143.2,67 c -0.4,0.6 -1.1,0.5 -1.6,0.9 -0.5,0.4 -0.1,1.2 -0.8,1.2 -0.1,0 -1.1,-0.2 -1.2,-0.2 -0.1,0 -0.4,-0.1 -0.7,0.3 0.4,0.5 0.9,0.8 0.9,1.3 0,0.1 -0.1,0.2 -0.1,0.3 0,0.3 -1,0.7 -1.5,0.8 l -1.6,-0.1 c -0.3,0 -0.8,0.4 -1.1,0.8 -0.3,-0.2 -0.5,-0.5 -0.6,-0.9 0,-0.6 0.8,-0.4 1,-0.4 h 0.8 c 0.5,-0.1 0.9,-0.4 1,-0.9 0,-0.8 -1.4,-0.8 -1.4,-1.7 0,-0.7 0.9,-0.8 1.3,-0.8 0.1,0 1.9,0.4 2,0.4 0.5,0 0.9,-0.5 1.4,-0.7 0.4,-0.2 0.8,-0.3 1.2,-0.3 0.4,0.1 0.7,0.1 1,0"
   id="path110" />
		<path
   class="st1"
   d="m 149,136.5 c 0.7,0 1.4,0.5 1.4,1.2 0,0 0,0.1 0,0.1 0.1,6.9 0.1,6.9 0.1,6.9 0,0.2 0.1,0.6 0.1,0.7 0.1,0.3 0.1,0.7 0.2,1 0.3,1.2 1.3,2.1 2.6,2.1 3.1,0 9.1,-4.2 11.5,-6.5 -0.2,-0.2 -0.8,-0.8 -1,-1 -0.2,-0.2 -0.6,-0.5 -0.6,-0.7 1.2,-0.8 2.4,-1.6 3.6,-2.3 0.5,-0.3 1,-0.6 1.3,-1 0.5,-0.4 1,-0.7 1.5,-0.9 0.3,0 0,1.6 0.1,1.6 -0.1,0.6 -0.3,1.6 -0.3,1.7 0,0.1 -0.3,1.1 -0.3,1.2 -0.2,1 -0.5,1.9 -1,2.8 -0.1,0.1 -0.2,0.3 -0.3,0.4 -0.6,0 -1.8,-1.1 -2,-1.1 -1.4,1.1 -2.7,2.2 -3.9,3.5 -0.7,0.6 -1.4,1.1 -2,1.6 -1.3,1.1 -8.8,7 -11.5,7 -2.6,0 -10.2,-5.9 -11.5,-7 -0.6,-0.5 -1.3,-1 -2,-1.6 -1.2,-1.2 -2.5,-2.4 -3.9,-3.5 -0.2,0 -1.4,1.1 -2,1.1 -0.1,-0.1 -0.2,-0.2 -0.3,-0.4 -0.5,-0.9 -0.8,-1.8 -0.9,-2.8 0,-0.1 -0.3,-1.1 -0.3,-1.2 0,-0.1 -0.2,-1.2 -0.3,-1.7 0.1,-0.1 -0.2,-1.6 0.1,-1.6 0.6,0.2 1.1,0.5 1.5,0.9 0.4,0.3 0.9,0.6 1.3,1 1.3,0.7 2.5,1.4 3.6,2.3 0,0.2 -0.5,0.7 -0.6,0.7 -0.1,0.1 -0.7,0.7 -1,1 2.3,2.2 8.4,6.5 11.5,6.5 1.2,-0.1 2.3,-0.9 2.6,-2.1 0.1,-0.3 0.2,-0.7 0.2,-1 0,-0.1 0.1,-0.4 0.1,-0.7 0,0 0,-0.1 0.1,-6.9 0,-0.7 0.5,-1.3 1.3,-1.3 0,0 0.1,0 0.1,0 z"
   id="path111" />
		<path
   class="st1"
   d="m 129.6,114.8 v 15.8 c 0,0 1.7,1.3 7.8,-0.3 0,0 6.2,-2.3 11,0.5 v -16.3 c 0,0 -3.1,-2.7 -10.6,-0.7 0,0 -4.8,1.6 -7,1 -1.6,-0.4 -1.2,0 -1.2,0"
   id="path112" />
		<path
   class="st1"
   d="m 148.3,135.2 c -0.2,0.1 -0.3,0.1 -0.5,0 0,-0.1 -0.1,-0.1 -0.1,-0.2 0.1,-0.6 0.3,-1.3 0.6,-1.9 0,0.7 0,1.4 0,2.1"
   id="path113" />
		<path
   class="st1"
   d="m 148.8,133.1 c 0.1,0.2 0.1,0.3 0.2,0.5 0.1,0.4 0.1,0.7 0.1,1.1 v 0.6 h -0.4 c 0,-0.1 0,-0.2 0,-0.3 v -1.3 c 0,-0.1 0.1,-0.1 0,-0.1 -0.2,-0.1 0,-0.4 0.1,-0.5"
   id="path114" />
		<path
   class="st1"
   d="m 147.9,133 v 0.4 c 0,0.1 -0.3,1.1 -0.5,1.6 h -0.2 c -0.1,-0.1 -0.1,-0.2 -0.1,-0.3 0.2,-0.6 0.5,-1.2 0.8,-1.7"
   id="path115" />
		<path
   class="st1"
   d="m 147.6,132.8 c -0.2,0.5 -0.5,1.1 -0.7,1.6 -0.1,0 0,0.1 -0.2,0.1 -0.1,0 -0.2,-0.1 -0.2,-0.2 0.2,-0.6 0.6,-1.1 1.1,-1.5"
   id="path116" />
		<path
   class="st1"
   d="m 147.2,132.4 -0.1,0.2 c -0.3,0.4 -0.6,0.8 -0.9,1.3 -0.3,-0.1 -0.2,-0.3 -0.2,-0.3 0,-0.2 1,-1.1 1.2,-1.2"
   id="path117" />
		<path
   class="st1"
   d="m 167.9,114.8 v 15.8 c 0,0 -1.6,1.3 -7.8,-0.3 0,0 -6.1,-2.3 -11,0.5 v -16.3 c 0,0 3,-2.7 10.6,-0.7 0,0 4.8,1.6 7,1 1.7,-0.4 1.2,0 1.2,0"
   id="path118" />
		<path
   class="st1"
   d="m 149.3,135.2 c 0.2,0.1 0.3,0.1 0.5,0 0,-0.1 0,-0.1 0,-0.2 -0.1,-0.6 -0.3,-1.3 -0.6,-1.9 0,0.7 0,1.4 0.1,2.1"
   id="path119" />
		<path
   class="st1"
   d="m 149.7,133 v 0.4 c 0.1,0.5 0.3,1.1 0.5,1.6 h 0.2 c 0.1,-0.1 0.1,-0.2 0.1,-0.3 -0.2,-0.6 -0.4,-1.2 -0.8,-1.7"
   id="path120" />
		<path
   class="st1"
   d="m 150,132.8 c 0.2,0.5 0.5,1.1 0.7,1.6 0.1,0 0,0.1 0.2,0.1 0.1,0 0.2,-0.1 0.2,-0.2 -0.2,-0.6 -0.6,-1.1 -1.1,-1.5"
   id="path121" />
		<path
   class="st1"
   d="m 168.7,115.1 v 16.4 l -0.2,-0.3 -0.2,-0.4 v -16.2 z m 0.6,0.3 v 16.9 l -0.4,-0.6 v -16.5 z m 0.6,0.4 V 133 l -0.1,-0.1 -0.2,-0.3 v -16.8 z"
   id="path122" />
		<path
   class="st1"
   d="m 150.4,132.4 0.1,0.2 c 0.3,0.4 0.6,0.8 0.9,1.3 0.3,-0.1 0.2,-0.3 0.2,-0.3 0,-0.2 -1,-1.1 -1.2,-1.2"
   id="path123" />
		<path
   class="st1"
   d="m 170.4,116.3 h 0.7 v 18 h -19 v 0 c -0.7,1.1 -1.9,1.8 -3.2,1.9 h -0.1 c -1.3,-0.1 -2.5,-0.8 -3.2,-1.9 v 0 h -19 v -18 h 0.6 v 17.4 h 18.5 v 0.4 c 0.9,1.8 3.1,2.5 4.9,1.5 0.7,-0.3 1.2,-0.9 1.5,-1.5 v -0.4 h 18.4 z"
   id="path124" />
		<path
   class="st1"
   d="m 135.3,73.2 c 0,-0.2 0.2,-0.4 0.4,-0.4 0.2,0 0.4,0.2 0.4,0.4 0,0.2 -0.2,0.4 -0.4,0.4 0,0 0,0 0,0 -0.3,0 -0.4,-0.2 -0.4,-0.4 0,0 0,0 0,0"
   id="path125" />
		<path
   class="st1"
   d="m 154.5,78.7 c -0.3,0 -1,0.6 -0.9,0.9 h 0.3 c 0.4,-0.1 0.7,-0.3 0.9,-0.7 0,-0.1 -0.2,-0.2 -0.3,-0.2 0,0 0,0 0,0"
   id="path126" />
		<path
   class="st1"
   d="m 148.8,113.9 -1.5,-1 c 0,-0.3 0,-0.9 0,-1.3 0,-0.7 0.6,-1.3 1.3,-1.3 0,0 0.1,0 0.1,0 h 0.4 c 0.7,0 1.4,0.5 1.4,1.2 0,0 0,0.1 0,0.1 0,0.4 0,1 0,1.3 z"
   id="path127" />
		<polygon
   class="st1"
   points="137.9,104.5 140.3,104.5 140.3,107.9 138,107.4 "
   id="polygon127" />
		<polygon
   class="st1"
   points="134,104.8 137.5,104.8 137.5,107.1 134,106.6 "
   id="polygon128" />
		<polygon
   class="st1"
   points="133.8,104.9 133.1,105.4 133.1,107.2 133.8,106.7 "
   id="polygon129" />
		<path
   d="m 139,104.8 c 0.1,0 0.1,0 0.2,0 0.3,0 0.6,0.3 0.6,0.6 0,0.3 -0.3,0.6 -0.6,0.6 v 0 c -0.1,0 -0.3,-0.2 -0.4,-0.3 0.2,-0.1 0.5,0 0.5,-0.4 -0.1,-0.2 -0.2,-0.4 -0.3,-0.5"
   id="path129" />
		<path
   d="m 139,106.2 c 0.1,0 0.1,0 0.2,0 0.3,0 0.6,0.3 0.6,0.6 0,0.3 -0.3,0.6 -0.6,0.6 v 0 c -0.1,0 -0.3,-0.2 -0.4,-0.3 0.2,-0.1 0.5,0 0.5,-0.4 -0.1,-0.2 -0.2,-0.4 -0.3,-0.5"
   id="path130" />
		<polygon
   class="st1"
   points="133.9,106.9 137.5,107.4 137.5,107.9 133.3,107.3 "
   id="polygon130" />
		<polygon
   class="st1"
   points="138,107.8 140.3,108.2 140.3,108.6 138,108.2 "
   id="polygon131" />
		<polygon
   class="st1"
   points="140.7,108.1 148.8,109.5 148.8,109.9 140.7,108.6 "
   id="polygon132" />
		<polygon
   class="st1"
   points="159.6,104.5 157.3,104.5 157.3,107.9 159.6,107.4 "
   id="polygon133" />
		<polygon
   class="st1"
   points="163.6,104.8 160.1,104.8 160.1,107.1 163.6,106.6 "
   id="polygon134" />
		<path
   d="m 158.1,104.8 c 0.1,0 0.1,0 0.2,0 0.3,0 0.6,0.3 0.6,0.6 0,0.3 -0.3,0.6 -0.6,0.6 -0.1,0 -0.3,-0.2 -0.4,-0.3 0.2,-0.1 0.5,0 0.5,-0.4 -0.1,-0.2 -0.2,-0.4 -0.3,-0.5"
   id="path134" />
		<path
   d="m 158.1,106.2 c 0.1,0 0.1,0 0.2,0 0.3,0 0.6,0.3 0.6,0.6 0,0.3 -0.3,0.6 -0.6,0.6 -0.1,0 -0.3,-0.2 -0.4,-0.3 0.2,-0.1 0.5,0 0.5,-0.4 -0.1,-0.2 -0.2,-0.4 -0.3,-0.5"
   id="path135" />
		<polygon
   class="st1"
   points="163.6,106.9 160.1,107.4 160.1,107.9 163.3,107.4 "
   id="polygon135" />
		<polygon
   class="st1"
   points="159.6,107.8 157.3,108.2 157.3,108.6 159.6,108.2 "
   id="polygon136" />
		<polygon
   class="st1"
   points="140.8,104.9 148.8,104.9 156.8,104.9 156.8,107.7 148.8,109.1 140.8,107.7 "
   id="polygon137" />
		<polygon
   class="st1"
   points="156.9,108.1 148.8,109.5 148.8,109.9 156.9,108.6 "
   id="polygon138" />
		<path
   d="m 152.2,118.6 c 0.9,0 1.6,0.5 1.6,1.2 0,0.4 -0.2,0.7 -0.6,0.9 0.3,0.4 0.8,0.8 0.8,1.2 0,1.1 -1.2,1.3 -1.9,1.3 -0.1,0 -0.5,0 -1.5,0 -0.1,-0.1 -0.1,-0.1 -0.2,-0.1 0.1,-0.2 0.2,-0.4 0.3,-0.6 V 119 c -0.1,-0.1 -0.2,-0.3 -0.3,-0.4 0.7,0 1.2,0 1.8,0"
   id="path138" />
		<path
   d="m 156.7,118.9 c 1.1,0.1 1.9,1 1.9,2.1 0,0 0,0 0,0 0.1,1.2 -0.8,2.3 -2,2.4 -1.1,-0.1 -2,-1 -2,-2.1 -0.1,-1.3 0.8,-2.3 2.1,-2.4 0,0 0,0 0,0"
   id="path139" />
		<path
   d="m 159.2,119.1 c 1.7,0 1.2,1.2 2.4,2.5 0.2,-0.4 0.3,-0.9 0.2,-1.3 0,-0.4 0,-0.4 -0.4,-0.7 0.1,0 0.1,-0.1 0.2,-0.1 0.3,0 0.7,0.1 1,0.2 -0.7,0.4 -0.5,1.2 -0.6,1.8 -0.1,1.1 -0.1,1.8 -0.2,2.4 -1,-1.1 -1.3,-2.2 -2.1,-3.2 0,0 -0.1,0.1 -0.1,0.1 -0.1,0.6 -0.3,1.8 -0.3,1.9 0.1,0.3 0.2,0.6 0.4,0.9 -0.4,0.1 -0.8,0.1 -1.2,0 0,0 0,-0.1 0,-0.1 0.5,-0.2 0.4,-1.1 0.4,-1.5 0,-0.1 0.3,-1.8 0.3,-1.9 -0.1,-0.3 -0.2,-0.5 -0.4,-0.7 0.2,-0.2 0.3,-0.3 0.4,-0.3"
   id="path140" />
		<path
   d="m 163.9,119.6 c 0.4,0.1 1.2,0.1 1.4,0.1 0,0 0.1,0 0.1,0.1 0,0.1 -0.2,0.2 -0.2,0.3 0.1,0.5 0.3,1 0.5,1.5 0.2,0.8 0.5,1.5 1,2.1 v 0.2 c -0.5,0.1 -1.1,0.1 -1.6,0 0,0 -0.1,0 -0.1,-0.1 0,-0.1 0.2,-0.3 0.2,-0.4 0,-0.3 -0.2,-0.8 -0.6,-0.8 h -0.9 c -0.2,0.2 -0.3,0.5 -0.3,0.8 0,0.1 0.1,0.2 0.2,0.4 -0.4,0.1 -0.8,0.1 -1.2,0 0.1,-0.2 0.4,-0.3 0.5,-0.5 0.4,-1 0.8,-2 1.1,-3.1 0,-0.1 -0.2,-0.3 -0.2,-0.4 0,-0.1 0,-0.1 0.1,-0.2"
   id="path141" />
		<path
   class="st1"
   d="m 156.8,119.2 c 0.6,0 0.7,0.5 0.8,1.1 0.1,0.5 -0.1,0.6 0,0.7 0.1,0.1 -0.2,2 -1.1,2 -0.9,0 -0.9,-1.3 -0.9,-1.6 0,-0.3 0.2,-2.2 1.2,-2.2"
   id="path142" />
		<path
   class="st1"
   d="m 164.2,121 c 0.2,0.3 0.4,0.6 0.5,1 0,0.1 0,0 -0.1,0.2 H 164 c -0.1,-0.1 -0.1,-0.2 -0.1,-0.2 0.1,-0.4 0.2,-0.7 0.3,-1"
   id="path143" />
		<path
   class="st1"
   d="m 152.1,121 c 0.5,0 0.9,0.3 0.9,0.8 0,0 0,0.1 0,0.1 0,0.5 -0.4,0.9 -0.9,1 -0.2,0 -0.3,-0.1 -0.4,-0.2 v -1.4 c 0,-0.2 0.2,-0.3 0.4,-0.3"
   id="path144" />
		<path
   class="st1"
   d="m 152.2,119 c 0.5,0 0.7,0.2 0.7,0.7 0,0.5 -0.2,0.8 -0.8,0.8 -0.1,0 -0.3,-0.1 -0.4,-0.2 0,-0.4 0,-0.9 0.1,-1.3 0.1,0 0.2,0 0.4,0"
   id="path145" />
		<path
   d="m 144.6,118.6 h 1 c 0.1,0.4 0.1,0.8 0,1.2 -0.2,0 -0.3,-0.6 -0.6,-0.7 -0.1,0 -0.2,-0.1 -0.4,-0.1 -0.3,0 -0.7,0.1 -0.7,0.5 0,1 2.2,1 2.2,2.6 0,0.7 -0.5,1.2 -1.2,1.2 0,0 -0.1,0 -0.1,0 -0.1,0 -0.9,-0.2 -1.3,-0.2 -0.2,-0.3 -0.2,-0.6 -0.2,-0.9 0,-0.1 0.1,-0.3 0.1,-0.4 0.3,0.6 0.8,1.1 1.5,1.2 0.3,0 0.5,-0.2 0.5,-0.5 0,0 0,0 0,-0.1 0,-0.9 -2.2,-1.1 -2.2,-2.5 0,-1 0.6,-1.3 1.4,-1.3"
   id="path146" />
		<path
   d="m 141.7,119 c 0.1,0 0.2,0.1 0.3,0.2 v 1.1 c -0.2,-0.2 -0.3,-0.4 -0.5,-0.6 -0.2,-0.1 -0.4,-0.2 -0.7,-0.2 -0.1,0 -0.8,0.1 -0.8,0.4 0,0.6 0,0.7 0,0.7 0,0 0,0.6 0.3,0.6 0.3,0 0.4,-0.3 0.7,-0.5 0.1,0.1 0.1,0.2 0.1,0.3 0,0.1 -0.1,0.1 0,0.9 -0.2,-0.2 -0.4,-0.4 -0.7,-0.4 -0.3,0 -0.3,0.2 -0.3,0.3 0,0.6 0,0.7 0,0.8 0,0.2 0.1,0.4 0.1,0.6 0.1,0.2 0.3,0.1 0.4,0.1 0.7,0.1 1.3,-0.4 1.5,-1 0.1,0.1 0.1,0.1 0.1,0.2 0,0.3 -0.1,0.6 -0.2,0.9 -0.8,0.2 -1.6,0.3 -2.5,0.4 h -0.7 c 0,-0.1 0.2,-0.3 0.2,-0.4 0.1,-0.2 0.1,-0.3 0.1,-0.5 l -0.2,-2.8 c 0,-0.3 -0.2,-0.5 -0.4,-0.7 0,-0.1 0.1,-0.1 0.1,-0.2 1.2,0 3,-0.2 3.1,-0.2"
   id="path147" />
		<path
   d="m 136.8,119.6 c 0.9,0 1.5,0.5 1.5,1.3 0,0.8 -0.5,1.4 -2,1.4 -0.2,0.1 -0.1,0.4 -0.1,0.4 0,0.3 0.1,0.7 0.2,1 0,0.1 0.2,0.2 0.4,0.3 -0.1,0.3 -0.7,0.2 -1,0.2 -0.7,0 -0.8,0 -0.9,-0.1 -0.1,-0.1 0.1,-0.2 0.2,-0.3 0.1,-0.2 0.1,-0.5 0.1,-0.7 l -0.1,-2.8 c -0.1,-0.2 -0.2,-0.4 -0.3,-0.6 0.6,0 1.3,-0.2 2,-0.1"
   id="path148" />
		<path
   d="m 132.6,119.7 c 0.1,0 0.3,0 1.3,0.1 -0.1,0.2 0,0.5 0,0.7 0,0.2 -0.1,0.4 -0.1,0.6 -0.2,-0.2 -0.2,-0.4 -0.4,-0.6 -0.2,-0.1 -0.4,-0.2 -0.7,-0.2 -0.3,0 -0.6,0.1 -0.6,0.5 0,0.6 1.8,1.4 1.7,1.6 -0.1,0.2 0.2,0.2 0.3,0.3 0.1,0.1 0.2,0.3 0.2,0.4 0,0 0.2,0 0.2,0.2 0,0.2 -0.1,-0.1 -0.1,0 0,0.1 0.1,0.1 0.1,0.2 0,0.1 -0.1,0.1 -0.1,0.2 0,0.1 0,0 0.1,0 -0.1,0.3 -0.3,0.5 -0.5,0.7 -0.2,0.1 -0.5,0.2 -0.8,0.3 -0.3,-0.1 -0.7,-0.2 -1,-0.3 -0.2,0 -0.4,0 -0.5,0 -0.1,-0.3 -0.1,-0.7 -0.1,-1 0,-0.1 0.1,-0.3 0.1,-0.4 0.4,0.6 0.7,1.2 1.4,1.2 0.3,0 0.6,-0.3 0.6,-0.6 0,-0.9 -2.1,-1 -2.1,-2.5 -0.3,-0.9 0.2,-1.4 1,-1.4 -0.1,-0.1 -0.1,-0.1 0,0"
   id="path149" />
		<path
   class="st1"
   d="m 136.6,120 c 0.6,0 0.8,0.7 0.8,1 0,0.5 -0.2,1 -0.8,1 -0.1,0 -0.4,0 -0.4,-0.3 0,-0.4 0,-0.8 -0.1,-1.1 0.1,-0.5 0.1,-0.6 0.5,-0.6"
   id="path150" />
		<path
   class="st0"
   d="m 148.7,163.6 c -8.4,-3.5 -36.9,-18.1 -36.9,-51.6 v -3.5 c 2,-0.6 6.9,-2.1 8.8,-2.6 0,0 3,-1.4 8.3,0.8 5.6,2.2 11.4,3.6 17.4,4.3 0.3,0.1 0.2,1.6 0.2,1.8 l -0.3,-0.1 c -0.1,0 -0.2,-0.1 -0.4,-0.1 -1,-0.1 -2,-0.2 -3,-0.2 -1.5,0 -2.9,0.2 -4.3,0.6 -0.7,0.1 -1.3,0.3 -1.9,0.5 -1.4,0.5 -2.8,0.7 -4.2,0.8 -0.1,0 -1.4,-0.2 -1.8,-0.2 -0.3,0 -0.7,0 -1,0.1 -0.3,0 -1.8,1.4 -2.3,1.6 -0.2,0.1 -1,-0.2 -1,0.2 v 18.7 h 19 c 0.2,0 1.3,1.7 1.3,1.7 v 8.5 c 0,0.1 -0.3,0.9 -0.3,1 -0.2,0.5 -0.5,1 -0.8,1.4 -0.4,0.5 -1,0.7 -1.6,0.6 -2.7,0 -8.4,-4 -10.2,-5.9 0,0 1.3,-1.2 1.3,-1.6 0,-0.4 -1.3,-1.1 -1.5,-1.1 -0.2,0 -0.4,-0.3 -0.7,-0.5 -0.6,-0.4 -1.3,-0.7 -2,-1.2 -0.4,-0.3 -2.3,-1.8 -3.1,-1.9 -0.5,0 -0.8,0.7 -0.8,0.9 l 0.1,2 c 0,0.1 0.2,1.4 0.4,2 0.2,0.8 0.4,1.7 0.7,2.5 0,0.1 0.7,1.6 1.2,1.6 0,0 2,-1.2 2.1,-1.2 0.1,0 1.5,1.4 1.8,1.8 0.8,0.7 1.6,1.6 2.5,2.4 1.3,1.1 2.8,2.1 4.1,3.1 0.5,0.4 1,0.8 1.5,1.1 0.7,0.5 1.5,1 2.3,1.5 0.3,0.2 0.8,0.3 1.1,0.5 1,0.6 2.5,1.6 3.7,1.6 h 0.8 c 1.1,0 2.7,-1 3.7,-1.6 0.3,-0.2 0.8,-0.3 1.1,-0.5 0.8,-0.5 1.6,-1 2.3,-1.5 0.5,-0.4 1,-0.8 1.5,-1.1 1.4,-1 2.8,-2 4.1,-3.1 0.9,-0.8 1.8,-1.7 2.5,-2.4 0.4,-0.3 1.6,-1.8 1.8,-1.8 0.2,0 2.1,1.2 2.1,1.2 0.4,0 1.1,-1.6 1.2,-1.6 0.3,-0.8 0.5,-1.6 0.7,-2.5 0.1,-0.6 0.4,-1.9 0.4,-2 v -2.2 c 0,-0.2 -0.3,-0.8 -0.7,-0.8 -0.7,0 -2.6,1.7 -3,2 -0.6,0.4 -1.4,0.8 -2,1.2 -0.3,0.2 -0.5,0.4 -0.7,0.5 -0.2,0.1 -1.5,0.6 -1.5,1.1 0,0.5 1.3,1.5 1.4,1.6 -1.8,2 -7.6,5.9 -10.2,5.9 -0.6,0.1 -1.2,-0.2 -1.6,-0.6 -0.3,-0.4 -0.6,-0.9 -0.8,-1.4 0,-0.1 -0.3,-0.9 -0.3,-1 v -8.5 c 0,0 1.1,-1.7 1.3,-1.7 h 19.1 V 116 c 0,-0.4 -0.9,-0.3 -1.1,-0.4 -0.5,-0.2 -1.9,-1.6 -2.2,-1.6 -0.5,0 -0.9,0.1 -1.4,0.2 -0.5,0.2 -1.1,0.3 -1.7,0.2 -1.4,-0.4 -2.8,-0.1 -4.2,-0.8 -0.6,-0.3 -1.2,-0.4 -1.8,-0.6 -2.4,-0.4 -2.3,-0.6 -4.1,-0.6 -1,0 -2,0 -3,0.1 -0.2,0 -0.3,0.1 -0.4,0.1 l -0.3,0.1 c 0,-0.2 -0.1,-1.5 0.1,-1.6 5.9,-0.7 11.8,-2.1 17.3,-4.2 5.3,-2.2 8.3,-0.8 8.3,-0.8 2.1,0.6 6.9,2.1 8.4,2.6 v 3.4 c 0,33.5 -28.5,48 -36.8,51.5"
   id="path151" />
		<path
   class="st1"
   d="m 128.1,132.5 -0.4,0.5 v -17 l 0.4,-0.2 z m 1.3,-17.6 v 15.9 l -0.4,0.6 v -16.2 z m -0.6,0.4 v 16.3 l -0.4,0.6 v -16.6 z"
   id="path152" />
		<path
   class="st1"
   d="m 128.8,132.7 0.3,0.1 c 0.4,0.1 0.7,0.2 1.1,0.3 1.8,0.3 3.7,0.3 5.5,0 l 1.3,-0.3 2.6,-0.6 c 0.8,-0.2 1.5,-0.3 2.3,-0.4 1.5,-0.1 3,0.2 4.3,0.9 l -0.1,0.1 c -1.3,-0.7 -2.7,-1 -4.2,-0.9 -0.6,0 -1.3,0.1 -1.9,0.3 0.7,-0.1 1.4,-0.2 2.1,-0.2 1.4,-0.1 2.7,0.2 3.9,0.9 l -0.1,0.1 c -1.2,-0.7 -2.5,-1 -3.9,-0.9 -0.8,0 -1.6,0.1 -2.4,0.2 l -2.7,0.5 -1.4,0.3 c -1.8,0.3 -3.7,0.3 -5.5,0 -0.4,-0.1 -0.7,-0.2 -1.1,-0.3 l -0.3,-0.1 z m 1,-1.5 0.2,0.1 c 1.9,0.5 3.8,0.5 5.7,0 l 3.8,-1 c 1,-0.2 2,-0.3 3,-0.4 1.8,-0.2 3.6,0.3 5.1,1.3 l -0.1,0.1 c -1.5,-1 -3.2,-1.4 -5,-1.3 -1,0 -2,0.2 -3,0.4 l -3.8,0.9 c -1.9,0.5 -3.9,0.5 -5.7,0 z m -0.6,0.8 c 0.5,0.2 1,0.3 1.6,0.4 1.6,0.3 3.2,0.2 4.8,-0.2 l 3.8,-1 c 0.9,-0.2 1.8,-0.4 2.7,-0.4 1.6,-0.1 3.3,0.3 4.6,1.2 l -0.1,0.1 c -1.3,-0.9 -2.9,-1.4 -4.5,-1.2 -0.9,0 -1.8,0.2 -2.7,0.4 l -3.8,1 c -1.6,0.4 -3.2,0.5 -4.9,0.2 -0.5,-0.1 -1,-0.2 -1.5,-0.5 z"
   id="path153" />
		<path
   class="st1"
   d="m 168.5,132.9 c -2.1,0.6 -4.4,0.7 -6.6,0.3 l -1.4,-0.3 -2.7,-0.5 c 0,0 -4,-0.8 -6.2,0.6 l -0.1,-0.1 c 1.2,-0.6 2.5,-0.9 3.8,-0.8 0.7,0 1.4,0.1 2.1,0.2 -1,-0.2 -3.9,-0.7 -6,0.6 l -0.1,-0.1 c 1.3,-0.7 2.8,-1 4.2,-0.9 0.8,0 1.6,0.2 2.3,0.4 l 2.6,0.6 1.3,0.3 c 1.8,0.3 3.7,0.3 5.5,0 0.4,-0.1 0.7,-0.2 1.1,-0.3 0.2,-0.1 0.4,-0.1 0.5,-0.2 l 0.1,0.1 c 0,0 -0.2,0 -0.4,0.1 m -0.5,-1.7 c -0.4,0.2 -2.5,1 -6.1,0.2 l -3.8,-0.9 c 0,0 -5.2,-1.3 -7.9,0.8 l -0.1,-0.1 c 1.5,-1 3.2,-1.4 5,-1.3 1,0 2,0.2 3,0.4 l 3.8,1 c 1.9,0.5 3.8,0.5 5.7,0 z m 0.6,0.8 c -2.1,0.8 -4.5,0.9 -6.7,0.3 l -3.8,-1 c 0,0 -4.6,-1.3 -7.2,0.8 l -0.1,-0.1 c 1.3,-0.9 2.9,-1.3 4.5,-1.2 0.9,0 1.8,0.2 2.7,0.4 l 3.8,1 c 1.6,0.4 3.2,0.5 4.8,0.2 0.7,-0.1 1.3,-0.3 2,-0.4 z"
   id="path154" />
	</g>
</g>
</svg>
